<svg xmlns="http://www.w3.org/2000/svg" style="display: none;"><symbol id="delivery" viewBox="0 0 512 512"><title>delivery</title><circle cx="356" cy="124" fill="#d5d5d3" r="28"/><path d="m408 200h-16v-21.194l-30.247-37.806 12.494-10 32 40a8 8 0 0 1 1.753 5z" fill="#d5d5d3"/><path d="m264 96-16 8v8a16 16 0 0 1 -16 16h-48v-80h64v24l5.33 8z" fill="#fdc8a2"/><path d="m253.33 80h-37.33v-16h32v8z" fill="#fdb683"/><path d="m40 352h56v48h-56z" fill="#c7483c"/><circle cx="120" cy="432" fill="#34507b" r="56"/><circle cx="120" cy="432" fill="#d5d5d3" r="24"/><path d="m40 136h96a16 16 0 0 1 16 16v112a0 0 0 0 1 0 0h-128a0 0 0 0 1 0 0v-112a16 16 0 0 1 16-16z" fill="#d65246"/><path d="m48 192h16v48h-16z" fill="#df6257"/><path d="m24 160h128v16h-128z" fill="#c7483c"/><path d="m311.029 408.971 49.942-49.942a24 24 0 0 0 7.029-16.97v-62.059a32 32 0 0 1 32-32v40a40 40 0 0 0 40 40v32h-17.844a32 32 0 0 0 -23.678 10.474l-60.956 67.052a32 32 0 0 1 -23.678 10.474h-289.844a105.442 105.442 0 0 1 86.58-103.742l1.42-.258v-32h136a27.672 27.672 0 0 1 -23.759 27.394 37.552 37.552 0 0 0 -32.241 37.175v1.879a37.553 37.553 0 0 0 37.552 37.552h64.507a24 24 0 0 0 16.97-7.029z" fill="#d65246"/><path d="m104.285 387.575-6.138-14.775a81.91 81.91 0 0 1 16.727-4.927l2.861 15.742a65.794 65.794 0 0 0 -13.45 3.96z" fill="#df6257"/><path d="m70.522 419.487-14.4-6.974a81.646 81.646 0 0 1 27.363-31.768l9.03 13.209a65.626 65.626 0 0 0 -21.993 25.533z" fill="#df6257"/><path d="m152 264h-128a8 8 0 0 0 -8 8v9.32a16.008 16.008 0 0 0 13.14 15.75l81.43 14.8a7.608 7.608 0 0 0 1.43.13h40a8 8 0 0 0 8-8v-32a8 8 0 0 0 -8-8zm-8 32h-31.28l-80.72-14.68v-1.32h112z" fill="#d5d5d3"/><path d="m256 64h-40v19a21 21 0 0 1 -32 17.89 20.611 20.611 0 0 1 -3.09-2.32 20.9 20.9 0 0 1 -6.8-13.48l-1.71-17.11a39.992 39.992 0 0 1 39.8-43.98h3.8a40 40 0 0 1 40 40z" fill="#d65246"/><path d="m184 240v16a24 24 0 0 0 24 24h80l-40 104h40l37.6-90.517a38.658 38.658 0 0 0 -2.388-34.441 38.655 38.655 0 0 0 -33.312-19.042z" fill="#7a432a"/><path d="m280 184-48-56h-48v112h64v-40l8.971 8.971a24 24 0 0 0 16.97 7.029h78.059v-32z" fill="#d65246"/><path d="m368 248h64v-56h-14.111a28.944 28.944 0 0 0 -25.889 16l-24 8z" fill="#d65246"/><path d="m488 432a55.967 55.967 0 1 1 -.57-8 56 56 0 0 1 .57 8z" fill="#34507b"/><path d="m487.43 424h-63.43l-31.68 47.52a56 56 0 1 1 95.11-47.52z" fill="#2f486e"/><path d="m455 432a24.025 24.025 0 1 1 -1.38-8 23.6 23.6 0 0 1 1.38 8z" fill="#cececc"/><path d="m453.62 424h-29.62l-13.57 20.35a23.994 23.994 0 1 1 43.19-20.35z" fill="#c6c6c4"/><path d="m396 419.151 24.5 24.5a14.849 14.849 0 0 0 21 0 14.849 14.849 0 0 0 0-21l-24.5-24.5z" fill="#d5d5d3"/><path d="m360 456h32l32-48h64a48 48 0 0 0 -48-48h-16a64 64 0 0 0 -64 64z" fill="#d65246"/><path d="m352 184v32l16 8v16h32v-40z" fill="#fdc8a2"/><circle cx="368" cy="232" fill="#34507b" r="16"/><g fill="#c7483c"><path d="m112 336h56v16h-56z"/><path d="m278.059 432h-150.059v-16h166.059a24 24 0 0 0 16.97-7.029l.971-.971-16.971 16.971a24 24 0 0 1 -16.97 7.029z"/><path d="m424 352a72.1 72.1 0 0 0 -70.98 60h16.289a56.088 56.088 0 0 1 54.691-44h16v-16z"/></g><rect fill="#34507b" height="32" rx="16" width="96" x="152" y="280"/><path d="m248 201.373-26.343-26.343-11.314 11.313 37.657 37.657z" fill="#c7483c"/><path d="m248 384h48a16 16 0 0 1 16 16 16 16 0 0 1 -16 16h-48a0 0 0 0 1 0 0v-32a0 0 0 0 1 0 0z" fill="#d5d5d3"/></symbol><symbol id="support" viewBox="0 0 512 512"><title>support</title><g><path d="m375.603 484.806c-3.569 0-6.768-2.5-7.517-6.133-.858-4.156 1.815-8.222 5.971-9.079l15.589-3.219c29.143-6.019 50.296-31.988 50.296-61.746v-31.792c0-4.244 3.44-7.684 7.684-7.684s7.684 3.44 7.684 7.684v31.792c0 37.012-26.309 69.31-62.556 76.797l-15.59 3.219c-.523.108-1.045.161-1.561.161z" fill="#2b4d66"/></g><g><path d="m231.396 149.457h-41.437c-33.76 0-61.129 27.368-61.129 61.129v8.014c0 21.679 11.294 40.708 28.31 51.56 1.47.937 2.358 2.56 2.358 4.304v37.516c0 2.778 3.393 4.131 5.304 2.115l29.552-31.169c1.935-2.041 4.623-3.196 7.435-3.196h29.606c33.76 0 61.129-27.368 61.129-61.129v-8.014c.001-33.762-27.367-61.13-61.128-61.13z" fill="#b3e59f"/></g><g><g><path d="m445.673 314.501c-17.223 0-31.186-13.963-31.186-31.186v-117.027c0-54.739-44.534-99.273-99.273-99.273h-118.441c-54.739 0-99.273 44.534-99.273 99.273v117.027c0 17.223-13.963 31.186-31.186 31.186s-31.186-13.963-31.186-31.186v-117.027c0-89.131 72.514-161.645 161.645-161.645h118.441c89.131 0 161.645 72.514 161.645 161.645v117.027c0 17.224-13.962 31.186-31.186 31.186z" fill="#e4f6ff"/></g></g><g><g><path d="m315.215 4.643h-29.232c89.131 0 161.645 72.514 161.645 161.645v117.027c0 11.941-6.714 22.309-16.57 27.549 4.361 2.318 9.334 3.637 14.616 3.637 17.223 0 31.186-13.963 31.186-31.186v-117.027c-.001-89.131-72.514-161.645-161.645-161.645z" fill="#d3effb"/></g></g><g><path d="m46.292 217.882h51.22v167.339c0 8.284-6.716 15-15 15h-36.22c-25.566 0-46.292-20.726-46.292-46.292v-89.755c0-25.566 20.726-46.292 46.292-46.292z" fill="#365e7d"/></g><path d="m64.894 217.882v167.342c0 8.283-6.714 14.997-14.997 14.997h32.618c8.283 0 14.997-6.714 14.997-14.997v-167.342z" fill="#2b4d66"/><g><path d="m355.058 507.357h-33.336c-16.699 0-30.237-13.538-30.237-30.237 0-16.699 13.538-30.237 30.237-30.237h33.336c13.356 0 24.689 8.659 28.692 20.669.725 2.174-3.536 2.835-3.207 7.944s4.55 5.662 4.163 7.591c-2.771 13.842-14.992 24.27-29.648 24.27z" fill="#365e7d"/></g><path d="m364.892 448.527c.21 1.44.324 2.911.324 4.41 0 16.699-13.538 30.237-30.237 30.237h-33.336c-3.444 0-6.75-.584-9.834-1.645 2.135 14.608 14.712 25.827 29.913 25.827h33.336c16.699 0 30.237-13.538 30.237-30.237 0-13.254-8.533-24.51-20.403-28.592z" fill="#2b4d66"/><g><path d="m465.708 400.221h-10.4l-7.734-1.107-7.631 1.107h-10.454c-8.284 0-15-6.716-15-15v-167.339h51.22c25.566 0 46.292 20.726 46.292 46.292v89.755c-.001 25.566-20.727 46.292-46.293 46.292z" fill="#365e7d"/></g><path d="m465.612 217.882h-31.795c25.561 0 46.282 20.721 46.282 46.282v89.774c0 25.561-20.721 46.282-46.282 46.282h31.795c25.561 0 46.282-20.721 46.282-46.282v-89.774c.001-25.561-20.721-46.282-46.282-46.282z" fill="#2b4d66"/><g><path d="m259.498 156.304c4.366 8.416 6.847 17.966 6.847 28.102v8.014c0 33.761-27.368 61.129-61.129 61.129h-41.436c-10.136 0-19.686-2.481-28.102-6.847 4.972 9.584 12.404 17.687 21.461 23.468 1.47.939 2.36 2.561 2.36 4.305v37.506c0 2.778 3.393 4.131 5.304 2.115l29.552-31.169c1.935-2.041 4.623-3.196 7.435-3.196h29.606c33.76 0 61.129-27.368 61.129-61.129v-8.014c0-23.627-13.411-44.108-33.027-54.284z" fill="#95d6a4"/></g><path d="m248.917 205.884h-7.267c-.896-3.421-2.311-6.633-4.149-9.554l4.25-4.25c3.001-3.002 3.001-7.866 0-10.868-3.002-3-7.866-3-10.868 0l-4.25 4.25c-3.21-2.02-6.774-3.521-10.578-4.393v-5.999c0-4.244-3.44-7.684-7.684-7.684s-7.684 3.44-7.684 7.684v5.999c-3.804.872-7.368 2.373-10.578 4.393l-4.25-4.25c-3.002-3-7.867-3-10.868 0-3.001 3.002-3.001 7.867 0 10.868l4.25 4.25c-2.02 3.21-3.521 6.774-4.393 10.578h-5.999c-4.244 0-7.684 3.44-7.684 7.684s3.44 7.684 7.684 7.684h5.999c.872 3.804 2.373 7.368 4.393 10.578l-4.25 4.25c-3.001 3.002-3.001 7.867 0 10.868 1.501 1.5 3.468 2.25 5.434 2.25s3.933-.75 5.434-2.25l4.25-4.25c3.21 2.02 6.774 3.521 10.578 4.393v5.999c0 4.244 3.44 7.684 7.684 7.684s7.684-3.44 7.684-7.684v-5.999c3.804-.872 7.368-2.373 10.578-4.393l4.25 4.25c1.501 1.5 3.468 2.25 5.434 2.25s3.933-.75 5.434-2.25c3.001-3.002 3.001-7.866 0-10.868l-4.25-4.25c2.2-3.497 3.79-7.413 4.616-11.603h6.8c4.244 0 7.684-3.44 7.684-7.684 0-4.243-3.44-7.683-7.684-7.683zm-40.548 27.74c-10.494 0-19.031-8.537-19.031-19.031s8.537-19.031 19.031-19.031 19.031 8.537 19.031 19.031-8.537 19.031-19.031 19.031z" fill="#2b4d66"/><g fill="#2b4d66"><path d="m208.369 261.8c4.245 0 7.685-3.44 7.685-7.684v-1.544c-3.52.63-7.137.977-10.838.977h-4.531v.566c0 4.245 3.44 7.685 7.684 7.685z"/><path d="m241.751 247.974c2.154-2.155 2.753-5.267 1.815-7.963-3.882 3.132-8.155 5.795-12.734 7.912l.052.052c1.501 1.5 3.468 2.25 5.434 2.25s3.932-.751 5.433-2.251z"/></g><g><path d="m322.978 231.378h-41.437c-33.761 0-61.129 27.368-61.129 61.129v8.014c0 33.761 27.368 61.129 61.129 61.129h33.32c2.812 0 5.501 1.156 7.435 3.196l25.837 27.252c1.911 2.016 5.304.663 5.304-2.115v-33.598c0-1.743.888-3.366 2.358-4.304 17.017-10.852 28.31-29.882 28.31-51.56v-8.014c.002-33.76-27.366-61.129-61.127-61.129z" fill="#ffe07d"/></g><g><path d="m351.08 238.226c4.366 8.416 6.847 17.966 6.847 28.102v8.014c0 33.761-27.368 61.129-61.129 61.129h-41.437c-10.136 0-19.686-2.481-28.102-6.847 10.176 19.616 30.656 33.027 54.281 33.027h33.321c2.812 0 5.501 1.156 7.435 3.196l25.837 27.252c1.911 2.016 5.304.663 5.304-2.115v-33.598c0-1.743.888-3.366 2.358-4.304 17.017-10.852 28.31-29.882 28.31-51.56v-8.014c.002-23.626-13.409-44.106-33.025-54.282z" fill="#ffd064"/></g><g><circle cx="300.16" cy="338.364" fill="#2b4d66" r="7.284"/></g><path d="m293.476 335.471c-.385.887-.6 1.864-.6 2.893 0 4.023 3.261 7.284 7.284 7.284s7.284-3.261 7.284-7.284c0-1.335-.365-2.583-.992-3.659-3.145.499-6.368.766-9.653.766z" fill="#2b4d66"/><g><g><path d="m300.159 321.268c-4.244 0-7.684-3.44-7.684-7.684v-18.244c0-4.244 3.44-7.684 7.684-7.684 2.702 0 5.215-1.082 7.079-3.045 1.863-1.961 2.811-4.535 2.67-7.247-.263-5.074-4.455-9.128-9.543-9.231-4.919-.061-9.191 3.508-9.873 8.39-.062.448-.094.91-.094 1.371 0 4.244-3.44 7.684-7.684 7.684s-7.684-3.44-7.684-7.684c0-1.17.081-2.346.242-3.496 1.734-12.417 12.387-21.635 24.891-21.635.171 0 .34.002.511.006 13.107.264 23.904 10.718 24.583 23.8.361 6.963-2.079 13.578-6.873 18.626-2.916 3.072-6.564 5.335-10.54 6.618v11.773c0 4.242-3.44 7.682-7.685 7.682z" fill="#2b4d66"/></g></g></symbol><symbol id="call-center-agent" viewBox="0 0 512 512"><title>call-center-agent</title><path d="m414.33 158.33v11.67h-30v-11.67c0-70.76-57.57-128.33-128.33-128.33s-128.33 57.57-128.33 128.33v11.67h-30v-11.67c0-87.3 71.02-158.33 158.33-158.33s158.33 71.03 158.33 158.33z" fill="#393e9f"/><path d="m414.33 158.33v11.67h-30v-11.67c0-70.76-57.57-128.33-128.33-128.33v-30c87.31 0 158.33 71.03 158.33 158.33z" fill="#340d66"/><path d="m175.287 248.594h-54.972c-13.767 0-24.928-11.161-24.928-24.928v-43.901c0-13.767 11.161-24.928 24.928-24.928h54.972z" fill="#fe4945"/><path d="m334.711 248.594h56.974c13.767 0 24.928-11.161 24.928-24.928v-43.901c0-13.767-11.161-24.928-24.928-24.928h-56.974z" fill="#fa185e"/><path d="m512 469.59v42.41h-103.29l-15-15-15 15h-245.42l-15-15-15 15h-103.29v-42.41c0-18.34 11.78-34.59 29.2-40.31l153.66-50.36h146.71v.14l153.23 50.22c17.42 5.72 29.2 21.97 29.2 40.31z" fill="#13cffe"/><path d="m512 469.59v42.41h-103.29l-15-15-15 15h-122.71v-133.08h73.57v.14l153.23 50.22c17.42 5.72 29.2 21.97 29.2 40.31z" fill="#28abf9"/><path d="m329.57 306.33v72.59s-37 36.57-73.57 36.57-73.14-36.57-73.14-36.57v-72.59z" fill="#ffb9ab"/><path d="m329.57 306.33v72.59s-37 36.57-73.57 36.57v-109.16z" fill="#e39e8d"/><path d="m350.72 152.72v31.48l-9.72 10.47h-170l-9.72-10.47v-31.48c0-26.16 10.6-49.84 27.74-66.98s40.82-27.74 66.98-27.74c52.31 0 94.72 42.41 94.72 94.72z" fill="#ffb81f"/><path d="m350.72 152.72v31.48l-9.72 10.47h-85v-136.67c52.31 0 94.72 42.41 94.72 94.72z" fill="#fc9b28"/><path d="m350.72 184.26v64.87c0 6.69-.61 13.22-1.78 19.54-.95 5.15-14.23 15-14.23 15s6.34 10.23 3.8 15c-16.25 30.62-47.11 51.29-82.51 51.29-26.16 0-49.84-11.28-66.98-29.53s-27.74-43.45-27.74-71.3v-64.87h50.52c17.01 0 32.52-6.46 44.2-17.06 13.26-12.04 21.59-29.41 21.59-48.72 0 36.33 29.45 65.78 65.78 65.78z" fill="#fccbc3"/><path d="m350.72 184.26v64.87c0 6.69-.61 13.22-1.78 19.54-.95 5.15-14.23 15-14.23 15s6.34 10.23 3.8 15c-16.25 30.62-47.11 51.29-82.51 51.29v-182.76c13.26-12.04 21.59-29.41 21.59-48.72 0 36.33 29.45 65.78 65.78 65.78z" fill="#ffb9ab"/><path d="m348.94 268.67c-1.97 10.71-5.54 20.8-10.43 30h-65.3v-30z" fill="#340d66"/><path d="m103.286 466h30v46h-30z" fill="#28abf9"/><path d="m378.714 466h30v46h-30z" fill="#318def"/></symbol><symbol id="equalizer" viewBox="0 0 512 512"><title>equalizer</title><path d="m467 361v90h-422c-24.901 0-45-20.101-45-45 0-24.901 20.099-45 45-45z" fill="#515866"/><path d="m467 406v45h-422c-24.901 0-45-20.101-45-45z" fill="#353d4d"/><path d="m512 256c0 24.899-20.099 45-45 45h-422c-24.901 0-45-20.101-45-45 0-24.901 20.099-45 45-45h422c24.901 0 45 20.099 45 45z" fill="#515866"/><path d="m512 256c0 24.899-20.099 45-45 45h-422c-24.901 0-45-20.101-45-45z" fill="#353d4d"/><path d="m512 106c0 24.899-20.099 45-45 45h-422v-90h422c24.901 0 45 20.099 45 45z" fill="#515866"/><path d="m512 106c0 24.899-20.099 45-45 45h-422v-45z" fill="#353d4d"/><path d="m0 31h60v150h-60z" fill="#ff7f40"/><path d="m452 331h60v150h-60z" fill="#ff7f40"/><path d="m0 106h60v75h-60z" fill="#f25a3c"/><path d="m226 181h60v150h-60z" fill="#ff7f40"/><g fill="#f25a3c"><path d="m226 256h60v75h-60z"/><path d="m452 406h60v75h-60z"/></g></symbol><symbol id="behavior" viewBox="0 0 64 64"><title>behavior</title><g><g><path d="m32 2h30v6h-30z" fill="#b4dd7f"/></g><g><path d="m33.64 42.64 13.36 13.36c0 1.66-.67 3.16-1.76 4.24-1.08 1.09-2.58 1.76-4.24 1.76l-13.36-13.36c2.47-1.46 4.54-3.53 6-6z" fill="#969faa"/></g><g><circle cx="19" cy="34" fill="#e6e9ed" r="17"/></g><g><circle cx="19" cy="34" fill="#69d6f4" r="13"/></g><g><path d="m21.36 3c.71-.62 1.63-1 2.64-1 2.21 0 4 1.79 4 4s-1.79 4-4 4h-2-5c-1.1 0-2 .9-2 2v2c-.55 0-1.05.22-1.41.59-.37.36-.59.86-.59 1.41v.17c0 .53.21 1.04.59 1.42l.82.82c.38.38.59.89.59 1.42v5.17l-2.79-2.09-.94-.71c-.81-.6-1.51-1.3-2.09-2.08-.41-.53-.76-1.09-1.05-1.68-.73-1.46-1.13-3.1-1.13-4.77 0-5.89 4.78-10.67 10.67-10.67z" fill="#b27946"/></g><g><path d="m16 46.65c-2.3-.54-4.36-1.7-6-3.27v-.01-10.98c0-1.63.5-3.17 1.37-4.46s2.12-2.33 3.63-2.93l4 4 2-2c1.51.6 2.76 1.64 3.63 2.93s1.37 2.83 1.37 4.46v10.56c-2.02 1.3-4.42 2.05-7 2.05-1.03 0-2.04-.12-3-.35z" fill="#ff826e"/></g><g><path d="m19 29-4-4v-5.17c0-.53-.21-1.04-.59-1.42l-.82-.82c-.38-.38-.59-.89-.59-1.42v-.17c0-.55.22-1.05.59-1.41.36-.37.86-.59 1.41-.59v-2c0-1.1.9-2 2-2h5 2s3 4 3 9l-3 1v.59c0 .45-.09.89-.26 1.3s-.42.79-.74 1.11c-.54.54-1.25.88-2 .97v3.03z" fill="#f0d0b4"/></g><g><path d="m48 40h12v12h-12z" fill="#fcd770"/></g><g><path d="m48 24h12v12h-12z" fill="#fcd770"/></g></g><g><circle cx="22" cy="14" r="1"/><path d="m37 34c0-6.462-3.446-12.378-9.021-15.592-.144-3.326-1.448-6.146-2.345-7.705 1.953-.681 3.366-2.521 3.366-4.703 0-2.757-2.243-5-5-5-1.116 0-2.136.38-2.969 1h-3.364c-6.434 0-11.667 5.233-11.667 11.667 0 2.224.654 4.383 1.82 6.23-4.286 3.403-6.82 8.603-6.82 14.103 0 9.925 8.075 18 18 18 3.058 0 5.938-.771 8.463-2.123l13.123 13.123h.414c3.859 0 7-3.14 7-7v-.414l-13.123-13.123c1.352-2.525 2.123-5.405 2.123-8.463zm-22-1.382v12.682c-1.492-.53-2.846-1.344-4.001-2.382l.001-10.533c0-2.643 1.477-4.993 3.796-6.175l4.204 4.204 2.204-2.204c2.319 1.182 3.796 3.532 3.796 6.175v9.991c-1.767 1.026-3.813 1.624-6 1.624-.683 0-1.348-.071-2-.181v-14.437l-2.553-1.276-.895 1.789zm-2.807-8.473.943.707c-2.55 1.622-4.136 4.423-4.136 7.533l-.001 8.232c-1.26-1.898-1.999-4.172-1.999-6.617 0-3.984 1.94-7.61 5.193-9.855zm9.807 2.206v-1.601c.633-.214 1.22-.556 1.707-1.042.169-.169.313-.354.451-.544 4.182 1.982 6.842 6.146 6.842 10.836 0 3.542-1.552 6.72-4 8.919v-8.534c0-3.451-1.941-6.535-5-8.034zm1-7.072v1.307c0 .645-.251 1.251-.707 1.707s-1.063.707-1.707.707h-2.586v2h2v1.586l-1 1-3-3v-4.757c0-.801-.313-1.555-.879-2.122l-.828-.828c-.189-.189-.293-.441-.293-.708v-.171c0-.551.448-1 1-1h1v-3c0-.551.448-1 1-1h5 1.473c.659 1.016 2.298 3.86 2.506 7.287zm-5.333-15.279h1.757c-.27.614-.424 1.288-.424 2h2c0-1.654 1.346-3 3-3s3 1.346 3 3-1.346 3-3 3h-2-5c-1.654 0-3 1.346-3 3v1.171c-1.164.413-2 1.525-2 2.829v.171c0 .801.313 1.555.879 2.122l.828.828c.189.189.293.441.293.708v3.172l-2.134-1.6c-2.421-1.817-3.866-4.708-3.866-7.734 0-5.331 4.337-9.667 9.667-9.667zm-14.667 30c0-4.877 2.241-9.489 6.035-12.516.451.5.941.968 1.48 1.386-3.475 2.641-5.515 6.702-5.515 11.13 0 7.72 6.28 14 14 14s14-6.28 14-14c0-5.505-3.143-10.387-8.076-12.683.033-.197.068-.393.074-.596l1.896-.632c5.008 2.847 8.106 8.134 8.106 13.911 0 8.822-7.178 16-16 16s-16-7.178-16-16zm42.984 22.398c-.193 2.44-2.146 4.393-4.586 4.586l-12.182-12.182c1.791-1.24 3.346-2.795 4.586-4.586z"/><path d="m47 53h14v-14h-14zm2-12h10v10h-10z"/><path d="m53 46.586-1.293-1.293-1.414 1.414 2.707 2.707 5.707-5.707-1.414-1.414z"/><path d="m47 37h14v-14h-14zm2-12h10v10h-10z"/><path d="m53 30.586-1.293-1.293-1.414 1.414 2.707 2.707 5.707-5.707-1.414-1.414z"/><path d="m31 1v8h32v-8zm14 2h4v4h-4zm-2 4h-4v-4h4zm8-4h4v4h-4zm-18 0h4v4h-4zm28 4h-4v-4h4z"/><path d="m37 11h18v2h-18z"/><path d="m37 15h18v2h-18z"/><path d="m37 19h2v2h-2z"/><path d="m53 19h2v2h-2z"/><path d="m49 19h2v2h-2z"/><path d="m45 19h2v2h-2z"/><path d="m41 19h2v2h-2z"/></g></symbol><symbol id="percentage" viewBox="0 0 497 497"><title>percentage</title><path d="m491.13 236.596-22.291-17.104 17.104-22.291c6.006-7.827 2.953-19.221-6.162-22.997l-25.958-10.752 10.752-25.958c3.776-9.115-2.122-19.331-11.904-20.618l-27.856-3.667 3.667-27.857c1.288-9.781-7.053-18.123-16.835-16.835l-11.903 1.567v356.831l11.903 1.567c9.782 1.288 18.123-7.053 16.835-16.835l-3.667-27.856 27.856-3.667c9.782-1.288 15.68-11.503 11.904-20.618l-10.752-25.958 25.958-10.752c9.115-3.775 12.168-15.169 6.162-22.997l-17.104-22.291 22.291-17.104c7.827-6.006 7.827-17.802 0-23.808z" fill="#fa6348"/><path d="m380.124 452.671 3.667-27.856 15.953 2.1c4.7-2.787 7.77-8.695 7.009-15.268l-3.225-27.856 24.493-3.667c8.601-1.288 13.787-11.503 10.467-20.618l-9.454-25.958 22.824-10.752c8.015-3.775 10.699-15.169 5.418-22.997l-15.039-22.291 19.6-17.104c6.882-6.006 6.882-17.802 0-23.808l-19.6-17.104 15.039-22.291c5.281-7.827 2.596-19.221-5.418-22.997l-22.824-10.752 9.454-25.958c3.32-9.115-1.866-19.331-10.467-20.618l-24.493-3.667 3.225-27.857c.761-6.573-2.309-12.48-7.01-15.268l-15.953 2.101-.316-2.398-3.352-25.458c-1.288-9.782-11.503-15.679-20.618-11.904l-25.958 10.752-10.752-25.958c-3.776-9.115-15.17-12.168-22.997-6.162l-22.291 17.104-17.102-22.291c-6.006-7.827-17.802-7.827-23.808 0l-17.104 22.291-22.291-17.104c-7.827-6.006-19.221-2.953-22.997 6.162l-10.752 25.958-25.958-10.752c-9.115-3.775-19.331 2.123-20.618 11.904l-3.667 27.856-27.856-3.667c-9.782-1.288-18.123 7.053-16.835 16.835l3.667 27.856-27.856 3.667c-9.781 1.288-15.68 11.503-11.904 20.618l10.752 25.958-25.958 10.752c-9.115 3.776-12.168 15.169-6.162 22.997l17.104 22.291-22.291 17.104c-7.827 6.006-7.827 17.802 0 23.808l22.291 17.104-17.104 22.291c-6.006 7.827-2.953 19.221 6.162 22.997l25.958 10.752-10.752 25.958c-3.776 9.115 2.122 19.331 11.904 20.618l27.856 3.667-3.667 27.856c-1.288 9.782 7.053 18.123 16.835 16.835l27.856-3.667 3.667 27.856c1.288 9.781 11.503 15.679 20.618 11.904l25.958-10.752 10.752 25.958c3.775 9.115 15.169 12.168 22.997 6.162l22.291-17.104 17.104 22.291c6.006 7.827 17.802 7.827 23.808 0l17.104-22.291 22.291 17.104c7.827 6.006 19.221 2.953 22.997-6.162l10.752-25.958 25.958 10.752c9.115 3.776 19.33-2.122 20.618-11.904z" fill="#fc7c49"/><g fill="#fffbdb"><path d="m322.746 262.746c-33.137 0-60 26.863-60 60s26.863 60 60 60 60-26.863 60-60-26.863-60-60-60zm0 90c-16.568 0-30-13.431-30-30 0-16.568 13.432-30 30-30 16.569 0 30 13.432 30 30 0 16.569-13.431 30-30 30z"/><path d="m174.254 114.254c-33.137 0-60 26.863-60 60s26.863 60 60 60 60-26.863 60-60-26.863-60-60-60zm0 90c-16.568 0-30-13.431-30-30 0-16.568 13.432-30 30-30 16.569 0 30 13.432 30 30 0 16.569-13.432 30-30 30z"/><path d="m139.252 357.748c-5.858-5.858-5.858-15.355 0-21.213l197.283-197.283c5.858-5.858 15.355-5.858 21.213 0s5.858 15.355 0 21.213l-197.283 197.283c-5.858 5.858-15.355 5.858-21.213 0z"/></g></symbol></svg>