<svg id="Capa_1" enable-background="new 0 0 512 512" height="512" viewBox="0 0 512 512" width="512" xmlns="http://www.w3.org/2000/svg"><g><g><path d="m375.603 484.806c-3.569 0-6.768-2.5-7.517-6.133-.858-4.156 1.815-8.222 5.971-9.079l15.589-3.219c29.143-6.019 50.296-31.988 50.296-61.746v-31.792c0-4.244 3.44-7.684 7.684-7.684s7.684 3.44 7.684 7.684v31.792c0 37.012-26.309 69.31-62.556 76.797l-15.59 3.219c-.523.108-1.045.161-1.561.161z" fill="#2b4d66"/></g><g><path d="m231.396 149.457h-41.437c-33.76 0-61.129 27.368-61.129 61.129v8.014c0 21.679 11.294 40.708 28.31 51.56 1.47.937 2.358 2.56 2.358 4.304v37.516c0 2.778 3.393 4.131 5.304 2.115l29.552-31.169c1.935-2.041 4.623-3.196 7.435-3.196h29.606c33.76 0 61.129-27.368 61.129-61.129v-8.014c.001-33.762-27.367-61.13-61.128-61.13z" fill="#b3e59f"/></g><g><g><path d="m445.673 314.501c-17.223 0-31.186-13.963-31.186-31.186v-117.027c0-54.739-44.534-99.273-99.273-99.273h-118.441c-54.739 0-99.273 44.534-99.273 99.273v117.027c0 17.223-13.963 31.186-31.186 31.186s-31.186-13.963-31.186-31.186v-117.027c0-89.131 72.514-161.645 161.645-161.645h118.441c89.131 0 161.645 72.514 161.645 161.645v117.027c0 17.224-13.962 31.186-31.186 31.186z" fill="#e4f6ff"/></g></g><g><g><path d="m315.215 4.643h-29.232c89.131 0 161.645 72.514 161.645 161.645v117.027c0 11.941-6.714 22.309-16.57 27.549 4.361 2.318 9.334 3.637 14.616 3.637 17.223 0 31.186-13.963 31.186-31.186v-117.027c-.001-89.131-72.514-161.645-161.645-161.645z" fill="#d3effb"/></g></g><g><path d="m46.292 217.882h51.22v167.339c0 8.284-6.716 15-15 15h-36.22c-25.566 0-46.292-20.726-46.292-46.292v-89.755c0-25.566 20.726-46.292 46.292-46.292z" fill="#365e7d"/></g><path d="m64.894 217.882v167.342c0 8.283-6.714 14.997-14.997 14.997h32.618c8.283 0 14.997-6.714 14.997-14.997v-167.342z" fill="#2b4d66"/><g><path d="m355.058 507.357h-33.336c-16.699 0-30.237-13.538-30.237-30.237 0-16.699 13.538-30.237 30.237-30.237h33.336c13.356 0 24.689 8.659 28.692 20.669.725 2.174-3.536 2.835-3.207 7.944s4.55 5.662 4.163 7.591c-2.771 13.842-14.992 24.27-29.648 24.27z" fill="#365e7d"/></g><path d="m364.892 448.527c.21 1.44.324 2.911.324 4.41 0 16.699-13.538 30.237-30.237 30.237h-33.336c-3.444 0-6.75-.584-9.834-1.645 2.135 14.608 14.712 25.827 29.913 25.827h33.336c16.699 0 30.237-13.538 30.237-30.237 0-13.254-8.533-24.51-20.403-28.592z" fill="#2b4d66"/><g><path d="m465.708 400.221h-10.4l-7.734-1.107-7.631 1.107h-10.454c-8.284 0-15-6.716-15-15v-167.339h51.22c25.566 0 46.292 20.726 46.292 46.292v89.755c-.001 25.566-20.727 46.292-46.293 46.292z" fill="#365e7d"/></g><path d="m465.612 217.882h-31.795c25.561 0 46.282 20.721 46.282 46.282v89.774c0 25.561-20.721 46.282-46.282 46.282h31.795c25.561 0 46.282-20.721 46.282-46.282v-89.774c.001-25.561-20.721-46.282-46.282-46.282z" fill="#2b4d66"/><g><path d="m259.498 156.304c4.366 8.416 6.847 17.966 6.847 28.102v8.014c0 33.761-27.368 61.129-61.129 61.129h-41.436c-10.136 0-19.686-2.481-28.102-6.847 4.972 9.584 12.404 17.687 21.461 23.468 1.47.939 2.36 2.561 2.36 4.305v37.506c0 2.778 3.393 4.131 5.304 2.115l29.552-31.169c1.935-2.041 4.623-3.196 7.435-3.196h29.606c33.76 0 61.129-27.368 61.129-61.129v-8.014c0-23.627-13.411-44.108-33.027-54.284z" fill="#95d6a4"/></g><path d="m248.917 205.884h-7.267c-.896-3.421-2.311-6.633-4.149-9.554l4.25-4.25c3.001-3.002 3.001-7.866 0-10.868-3.002-3-7.866-3-10.868 0l-4.25 4.25c-3.21-2.02-6.774-3.521-10.578-4.393v-5.999c0-4.244-3.44-7.684-7.684-7.684s-7.684 3.44-7.684 7.684v5.999c-3.804.872-7.368 2.373-10.578 4.393l-4.25-4.25c-3.002-3-7.867-3-10.868 0-3.001 3.002-3.001 7.867 0 10.868l4.25 4.25c-2.02 3.21-3.521 6.774-4.393 10.578h-5.999c-4.244 0-7.684 3.44-7.684 7.684s3.44 7.684 7.684 7.684h5.999c.872 3.804 2.373 7.368 4.393 10.578l-4.25 4.25c-3.001 3.002-3.001 7.867 0 10.868 1.501 1.5 3.468 2.25 5.434 2.25s3.933-.75 5.434-2.25l4.25-4.25c3.21 2.02 6.774 3.521 10.578 4.393v5.999c0 4.244 3.44 7.684 7.684 7.684s7.684-3.44 7.684-7.684v-5.999c3.804-.872 7.368-2.373 10.578-4.393l4.25 4.25c1.501 1.5 3.468 2.25 5.434 2.25s3.933-.75 5.434-2.25c3.001-3.002 3.001-7.866 0-10.868l-4.25-4.25c2.2-3.497 3.79-7.413 4.616-11.603h6.8c4.244 0 7.684-3.44 7.684-7.684 0-4.243-3.44-7.683-7.684-7.683zm-40.548 27.74c-10.494 0-19.031-8.537-19.031-19.031s8.537-19.031 19.031-19.031 19.031 8.537 19.031 19.031-8.537 19.031-19.031 19.031z" fill="#2b4d66"/><g fill="#2b4d66"><path d="m208.369 261.8c4.245 0 7.685-3.44 7.685-7.684v-1.544c-3.52.63-7.137.977-10.838.977h-4.531v.566c0 4.245 3.44 7.685 7.684 7.685z"/><path d="m241.751 247.974c2.154-2.155 2.753-5.267 1.815-7.963-3.882 3.132-8.155 5.795-12.734 7.912l.052.052c1.501 1.5 3.468 2.25 5.434 2.25s3.932-.751 5.433-2.251z"/></g><g><path d="m322.978 231.378h-41.437c-33.761 0-61.129 27.368-61.129 61.129v8.014c0 33.761 27.368 61.129 61.129 61.129h33.32c2.812 0 5.501 1.156 7.435 3.196l25.837 27.252c1.911 2.016 5.304.663 5.304-2.115v-33.598c0-1.743.888-3.366 2.358-4.304 17.017-10.852 28.31-29.882 28.31-51.56v-8.014c.002-33.76-27.366-61.129-61.127-61.129z" fill="#ffe07d"/></g><g><path d="m351.08 238.226c4.366 8.416 6.847 17.966 6.847 28.102v8.014c0 33.761-27.368 61.129-61.129 61.129h-41.437c-10.136 0-19.686-2.481-28.102-6.847 10.176 19.616 30.656 33.027 54.281 33.027h33.321c2.812 0 5.501 1.156 7.435 3.196l25.837 27.252c1.911 2.016 5.304.663 5.304-2.115v-33.598c0-1.743.888-3.366 2.358-4.304 17.017-10.852 28.31-29.882 28.31-51.56v-8.014c.002-23.626-13.409-44.106-33.025-54.282z" fill="#ffd064"/></g><g><circle cx="300.16" cy="338.364" fill="#2b4d66" r="7.284"/></g><path d="m293.476 335.471c-.385.887-.6 1.864-.6 2.893 0 4.023 3.261 7.284 7.284 7.284s7.284-3.261 7.284-7.284c0-1.335-.365-2.583-.992-3.659-3.145.499-6.368.766-9.653.766z" fill="#2b4d66"/><g><g><path d="m300.159 321.268c-4.244 0-7.684-3.44-7.684-7.684v-18.244c0-4.244 3.44-7.684 7.684-7.684 2.702 0 5.215-1.082 7.079-3.045 1.863-1.961 2.811-4.535 2.67-7.247-.263-5.074-4.455-9.128-9.543-9.231-4.919-.061-9.191 3.508-9.873 8.39-.062.448-.094.91-.094 1.371 0 4.244-3.44 7.684-7.684 7.684s-7.684-3.44-7.684-7.684c0-1.17.081-2.346.242-3.496 1.734-12.417 12.387-21.635 24.891-21.635.171 0 .34.002.511.006 13.107.264 23.904 10.718 24.583 23.8.361 6.963-2.079 13.578-6.873 18.626-2.916 3.072-6.564 5.335-10.54 6.618v11.773c0 4.242-3.44 7.682-7.685 7.682z" fill="#2b4d66"/></g></g></g></svg>