<svg id="Capa_1" enable-background="new 0 0 512 512" height="512" viewBox="0 0 512 512" width="512" xmlns="http://www.w3.org/2000/svg"><g><path d="m467 361v90h-422c-24.901 0-45-20.101-45-45 0-24.901 20.099-45 45-45z" fill="#515866"/><path d="m467 406v45h-422c-24.901 0-45-20.101-45-45z" fill="#353d4d"/><path d="m512 256c0 24.899-20.099 45-45 45h-422c-24.901 0-45-20.101-45-45 0-24.901 20.099-45 45-45h422c24.901 0 45 20.099 45 45z" fill="#515866"/><path d="m512 256c0 24.899-20.099 45-45 45h-422c-24.901 0-45-20.101-45-45z" fill="#353d4d"/><path d="m512 106c0 24.899-20.099 45-45 45h-422v-90h422c24.901 0 45 20.099 45 45z" fill="#515866"/><path d="m512 106c0 24.899-20.099 45-45 45h-422v-45z" fill="#353d4d"/><path d="m0 31h60v150h-60z" fill="#ff7f40"/><path d="m452 331h60v150h-60z" fill="#ff7f40"/><path d="m0 106h60v75h-60z" fill="#f25a3c"/><path d="m226 181h60v150h-60z" fill="#ff7f40"/><g fill="#f25a3c"><path d="m226 256h60v75h-60z"/><path d="m452 406h60v75h-60z"/></g></g></svg>